<?xml version="1.0" standalone="no"?>
<!DOCTYPE svg PUBLIC "-//W3C//DTD SVG 20010904//EN"
 "http://www.w3.org/TR/2001/REC-SVG-20010904/DTD/svg10.dtd">
<svg version="1.0" xmlns="http://www.w3.org/2000/svg"
 width="1611.000000pt" height="1626.000000pt" viewBox="0 0 1611.000000 1626.000000"
 preserveAspectRatio="xMidYMid meet">

<g transform="translate(0.000000,1626.000000) scale(0.100000,-0.100000)"
fill="#000000" stroke="none">
<path d="M7125 10800 c-148 -20 -162 -23 -305 -78 -358 -136 -511 -223 -655
-369 -86 -87 -103 -100 -118 -91 -30 16 -255 -26 -403 -76 -252 -86 -651 -311
-794 -448 -338 -325 -581 -669 -703 -998 -93 -250 -234 -763 -252 -915 -4 -33
-20 -121 -36 -195 -61 -294 -64 -676 -10 -1125 28 -230 37 -274 73 -380 53
-159 158 -396 220 -498 28 -45 69 -113 92 -151 22 -37 56 -86 75 -107 18 -22
32 -41 30 -42 -212 -140 -260 -170 -263 -165 -1 2 -7 15 -14 31 -8 18 -19 27
-35 27 -33 0 -47 -18 -47 -61 0 -24 -22 -87 -61 -176 -114 -259 -221 -534
-349 -892 -59 -166 -61 -175 -48 -210 18 -50 68 -72 258 -115 217 -50 334 -66
491 -66 75 0 150 -5 167 -11 25 -9 38 -7 79 12 35 16 75 24 150 28 91 5 105 9
130 32 29 27 157 119 165 119 3 0 22 -28 43 -61 55 -90 157 -202 229 -254 79
-56 154 -91 260 -120 44 -12 122 -39 173 -59 50 -19 111 -40 135 -45 24 -6 72
-22 107 -36 154 -60 259 -65 1131 -55 l185 2 79 -32 80 -31 235 1 c176 0 250
4 294 16 132 34 355 77 402 78 28 0 82 -5 120 -12 39 -6 158 -12 267 -12 122
0 243 -6 320 -16 195 -26 441 -8 673 48 63 15 121 21 195 21 97 0 114 -3 225
-41 149 -52 342 -87 435 -77 235 23 387 93 553 254 168 163 276 371 292 565 5
53 14 90 28 115 21 34 22 51 25 282 l3 246 82 8 c97 10 205 10 459 0 178 -7
189 -6 231 14 24 11 55 21 69 21 46 0 105 54 143 130 18 39 45 84 58 100 14
16 39 68 57 117 38 106 110 380 110 421 0 17 22 97 50 179 58 174 72 233 110
443 36 200 96 436 158 625 28 83 55 175 62 205 7 30 21 87 30 125 10 39 23 95
29 125 7 30 16 78 22 105 17 76 5 138 -36 201 -36 53 -37 54 -88 55 -98 3
-271 -2 -281 -8 -22 -14 -356 -25 -821 -28 -269 -2 -539 -8 -600 -14 -60 -6
-202 -13 -315 -16 -113 -3 -237 -8 -276 -11 l-72 -7 -3 52 c-5 60 -10 55 157
154 60 36 137 88 172 116 66 53 151 98 242 126 30 10 66 24 80 32 14 8 34 17
45 20 11 4 49 21 84 40 35 18 66 33 68 33 2 0 1 -53 -3 -118 l-7 -117 28 -33
28 -33 -22 -27 c-34 -43 -41 -68 -30 -102 13 -37 59 -63 94 -54 45 11 179 186
222 289 12 28 47 103 78 168 31 65 72 164 91 220 38 111 84 356 84 443 0 43 3
54 16 54 30 0 238 75 359 130 43 20 95 65 95 84 1 34 16 35 130 5 119 -31 259
-58 296 -59 12 0 38 11 58 25 20 14 48 25 62 25 35 0 68 40 88 107 10 32 22
69 28 83 62 146 148 473 148 561 0 24 5 39 15 43 8 3 22 21 31 40 21 42 13 79
-26 117 -26 27 -34 29 -107 29 -93 0 -262 24 -318 44 -22 8 -51 15 -65 16 -14
0 -56 11 -95 25 -55 19 -90 25 -163 25 -110 0 -120 -6 -175 -116 -33 -66 -137
-298 -156 -348 -8 -19 -15 -22 -36 -19 -37 8 -112 -24 -159 -67 -23 -20 -69
-58 -104 -85 l-62 -48 -56 61 c-71 79 -262 199 -364 230 -239 71 -322 88 -405
79 -62 -6 -136 -44 -161 -82 -17 -26 -14 -36 36 -110 15 -22 42 -66 61 -98 18
-32 53 -80 77 -107 l43 -49 -152 -101 c-84 -56 -159 -109 -168 -119 -9 -10
-41 -28 -71 -41 -29 -12 -71 -33 -92 -47 -39 -24 -58 -23 -58 2 0 22 -107 223
-155 290 -51 71 -105 128 -200 211 -72 63 -182 138 -216 149 -11 4 -19 16 -19
28 0 12 -13 45 -29 72 -16 28 -48 88 -70 134 -41 84 -105 173 -120 168 -5 -1
-49 39 -97 89 -193 197 -318 276 -744 467 -285 128 -531 188 -997 242 -265 31
-609 33 -818 5z m-1199 -722 c-9 -13 -32 -55 -52 -94 -32 -65 -87 -134 -98
-123 -8 8 -25 204 -18 210 11 11 92 27 141 28 43 1 43 1 27 -21z m6678 -389
c31 -67 81 -103 114 -83 25 16 42 54 42 97 0 36 1 37 39 37 22 0 52 -5 68 -11
47 -18 177 -38 248 -38 63 0 95 -8 68 -18 -7 -3 -13 -17 -13 -32 0 -15 -13
-45 -29 -67 -15 -21 -41 -77 -56 -124 -34 -103 -68 -174 -93 -192 -10 -7 -31
-32 -45 -55 -15 -23 -41 -50 -59 -59 -29 -15 -36 -15 -77 -1 -26 9 -90 27
-144 41 -54 14 -109 32 -123 39 l-26 14 42 48 c52 60 64 86 56 120 -12 46 -49
50 -158 19 -16 -5 -16 -1 2 48 10 29 34 91 53 138 18 47 37 97 41 113 3 15 10
27 14 26 4 0 20 -27 36 -60z m-7585 -219 c31 -47 63 -100 70 -118 13 -30 11
-35 -21 -85 -156 -234 -264 -409 -314 -510 l-35 -68 -67 58 c-37 33 -106 89
-154 126 l-87 67 50 88 c28 48 74 118 102 157 83 112 253 312 310 365 l52 49
18 -22 c10 -12 44 -60 76 -107z m731 -30 c57 -29 123 -109 174 -210 l48 -95
-5 -185 c-2 -113 -10 -214 -20 -260 -9 -41 -23 -124 -32 -185 -23 -158 -58
-287 -106 -390 -15 -33 -41 -94 -58 -135 -43 -105 -64 -136 -161 -241 -47 -51
-94 -104 -105 -118 -20 -27 -158 -184 -183 -211 -8 -8 -35 -24 -61 -37 -63
-31 -239 -33 -287 -4 -42 25 -78 74 -103 138 l-20 52 33 -20 c53 -31 167 -29
241 5 75 34 162 104 275 222 342 359 480 639 494 1009 8 196 -22 295 -118 391
-83 83 -143 106 -294 112 -121 4 -172 -7 -236 -51 -16 -12 -26 -15 -22 -9 12
20 105 85 181 127 39 21 95 52 125 69 59 33 153 57 185 49 11 -3 36 -14 55
-23z m6014 -276 c21 -8 56 -131 68 -238 l11 -95 -29 -38 c-40 -52 -72 -82
-117 -104 l-37 -20 -10 26 c-6 15 -10 30 -10 34 0 15 -93 286 -116 339 -29 65
-25 72 51 96 47 15 150 15 189 0z m-517 -66 c15 -24 45 -86 66 -138 32 -76 37
-96 26 -103 -31 -18 -121 -75 -180 -114 -35 -23 -126 -82 -203 -130 -76 -48
-186 -126 -245 -172 -114 -91 -212 -154 -222 -143 -4 4 -30 78 -59 166 l-53
158 29 23 c16 13 55 39 87 57 32 18 99 57 149 86 51 29 133 73 184 97 65 31
103 57 131 89 21 24 63 57 93 74 30 16 78 43 105 60 28 17 53 31 57 31 4 1 20
-18 35 -41z m-5642 -14 c86 -45 121 -142 111 -308 -16 -260 -87 -449 -245
-649 -96 -121 -346 -368 -411 -405 -91 -52 -127 -42 -170 50 -72 151 -62 362
31 691 53 188 86 270 117 291 15 10 58 65 96 122 72 108 154 195 208 219 51
23 211 16 263 -11z m4302 -431 c122 -84 220 -202 289 -348 93 -198 124 -360
157 -813 5 -59 4 -62 -18 -68 -23 -6 -234 0 -431 12 l-101 6 19 37 c77 156
-23 321 -195 321 -106 0 -207 -120 -207 -247 0 -67 58 -155 139 -210 2 -1 -8
-18 -23 -38 -15 -19 -30 -52 -33 -73 -6 -39 -56 -192 -73 -221 -7 -12 -10 -1
-10 39 0 61 -33 165 -75 235 -14 25 -53 74 -86 109 l-59 64 15 98 c63 391 161
686 297 887 123 184 190 237 299 237 45 0 64 -5 96 -27z m-2530 -98 c142 -27
286 -85 390 -157 70 -48 150 -152 208 -273 62 -129 88 -230 114 -442 19 -147
33 -196 65 -222 29 -24 17 -46 -48 -89 -121 -80 -181 -176 -192 -307 -6 -79
-6 -81 36 -164 59 -117 130 -185 256 -248 l98 -48 200 2 c217 2 363 14 550 45
131 21 171 37 234 96 24 22 41 35 39 29 -3 -7 -27 -68 -55 -137 -50 -126 -159
-459 -205 -625 -14 -49 -55 -193 -92 -320 -84 -289 -125 -450 -125 -486 0 -26
-2 -27 -27 -19 -16 4 -309 11 -651 15 -343 3 -661 10 -705 15 -45 6 -195 10
-334 10 l-252 0 -6 58 c-10 88 -34 178 -77 286 -55 138 -212 449 -264 522 -56
80 -171 186 -284 264 -73 49 -90 65 -83 79 4 9 6 48 4 86 -10 209 10 759 32
880 32 169 73 310 143 482 30 72 54 140 54 151 0 29 64 149 115 217 128 170
258 253 470 300 84 18 295 18 392 0z m4082 -107 c6 -46 13 -124 15 -174 l4
-91 -88 -57 c-48 -31 -92 -56 -97 -56 -6 0 -16 -6 -22 -14 -7 -8 -20 -12 -30
-9 -30 8 -269 -124 -362 -200 -33 -27 -87 -60 -201 -125 l-57 -32 -5 33 c-3
17 -8 54 -12 82 -3 27 -17 94 -31 148 -13 54 -23 100 -21 102 2 1 53 36 115
78 115 77 243 148 398 218 50 22 140 64 200 93 88 42 171 81 181 85 1 1 7 -36
13 -81z m-7148 -553 c79 -32 151 -85 142 -105 -3 -8 -8 -153 -11 -322 l-4
-308 -47 0 c-25 0 -82 -13 -126 -29 -44 -16 -119 -42 -167 -60 -48 -17 -94
-28 -104 -24 -15 6 -16 22 -11 177 6 156 18 266 61 563 22 150 23 151 59 155
42 4 132 -16 208 -47z m8585 -554 c15 -12 34 -31 42 -43 29 -41 12 -159 -43
-288 -37 -88 -66 -192 -64 -235 0 -22 -11 -78 -26 -125 -14 -47 -38 -128 -51
-180 -14 -52 -36 -129 -49 -170 -13 -41 -31 -115 -40 -165 -22 -126 -77 -332
-120 -450 -20 -54 -45 -138 -56 -185 -11 -47 -35 -121 -53 -165 -18 -44 -39
-100 -46 -125 -23 -84 -64 -185 -90 -218 -14 -18 -41 -42 -60 -52 -77 -39
-273 -57 -393 -36 -63 11 -112 12 -263 3 -144 -8 -207 -8 -277 2 -146 20 -746
31 -1317 26 -695 -7 -767 -10 -996 -48 l-82 -13 29 55 c24 47 31 76 40 176 14
161 20 187 166 710 85 306 159 550 205 675 108 300 130 354 152 383 14 19 44
74 66 123 23 49 47 100 53 113 16 32 98 105 144 126 33 16 76 18 408 20 268 2
404 7 495 19 170 21 594 38 1200 47 493 7 789 20 880 38 63 13 115 7 146 -18z
m-3918 -30 c71 -7 73 -7 132 -66 62 -62 110 -146 110 -194 0 -74 -10 -91 -71
-122 -41 -20 -73 -29 -106 -29 -26 0 -188 1 -360 1 -171 0 -324 4 -340 8 -18
5 -42 28 -70 67 -38 53 -42 65 -43 118 0 63 27 156 46 156 7 0 52 12 100 26
128 38 413 54 602 35z m-4413 -1158 c24 -164 89 -427 126 -505 l22 -47 -43
-56 c-31 -41 -61 -65 -104 -87 -33 -17 -77 -41 -98 -54 -36 -23 -39 -23 -45
-7 -19 57 -89 208 -114 248 -37 59 -118 221 -149 299 -17 42 -20 61 -12 64 6
2 52 23 102 47 49 25 123 58 162 74 40 16 87 36 103 45 41 22 43 21 50 -21z
m140 -915 c-3 -134 8 -380 20 -475 5 -37 3 -42 -17 -48 -13 -4 -132 -61 -265
-126 -134 -66 -277 -133 -318 -149 -97 -39 -228 -104 -284 -143 -36 -25 -43
-27 -37 -11 99 256 227 604 251 688 l33 110 58 16 c69 19 131 48 269 126 140
79 279 154 287 154 4 0 5 -64 3 -142z m2890 -257 c137 -8 725 -20 1078 -21
l28 0 -19 -27 c-12 -17 -67 -52 -137 -88 l-118 -60 -486 4 -486 3 -65 24
c-110 42 -160 84 -180 154 l-9 33 107 -6 c59 -3 188 -11 287 -16z m2168 -268
l129 -6 -54 -22 c-250 -103 -445 -330 -550 -638 -26 -78 -31 -107 -31 -189 0
-89 3 -102 35 -170 44 -93 76 -130 147 -172 82 -48 143 -94 133 -100 -4 -2
-60 -12 -123 -21 -123 -17 -217 -19 -638 -17 l-275 2 45 29 c83 52 193 214
234 344 21 66 25 98 25 206 0 243 -54 364 -259 582 l-81 87 148 4 c114 4 161
10 212 26 147 49 552 73 903 55z m1470 -33 c2 -3 7 -47 10 -98 l6 -93 -42 38
c-48 44 -119 95 -192 136 l-50 28 132 -3 c73 -2 134 -6 136 -8z m-3300 -46
l76 -7 6 -46 c4 -25 11 -62 17 -81 5 -19 12 -159 14 -310 6 -298 8 -310 61
-310 61 0 83 45 82 165 -1 102 17 270 40 366 11 46 23 101 26 122 3 20 11 37
16 37 20 0 267 -256 308 -320 58 -89 74 -151 74 -290 0 -114 0 -116 -40 -200
-62 -131 -103 -171 -226 -218 -226 -88 -527 -120 -783 -82 -170 25 -171 25
-273 67 -92 38 -229 126 -313 200 -76 67 -104 148 -118 343 -5 80 -12 154 -16
165 -4 17 12 33 85 89 117 88 165 119 285 179 103 51 115 52 116 2 0 -11 18
-108 40 -215 22 -107 40 -209 40 -228 0 -19 6 -48 14 -65 8 -18 20 -58 26 -90
12 -58 28 -77 68 -77 10 0 26 8 35 18 17 19 21 44 36 257 16 220 39 410 57
475 l17 60 77 0 c42 0 111 -3 153 -6z m2570 -126 c9 -40 19 -91 22 -113 6 -44
36 -363 38 -410 2 -20 10 -33 27 -42 44 -23 60 -16 82 34 21 47 29 98 48 293
6 58 20 142 33 187 l22 81 56 -24 c171 -71 283 -173 331 -297 16 -39 20 -75
20 -148 0 -83 -4 -106 -31 -173 -41 -102 -89 -174 -181 -268 -73 -75 -77 -78
-155 -98 -58 -15 -87 -18 -105 -11 -14 5 -92 12 -175 15 -157 5 -303 33 -355
68 -14 9 -43 20 -65 24 -67 12 -213 96 -320 185 -101 84 -115 120 -118 313 -2
133 0 144 23 191 26 52 77 96 169 148 l50 28 30 -94 c19 -60 37 -153 50 -255
12 -88 26 -172 33 -187 20 -45 100 -47 114 -2 4 12 8 63 9 112 2 136 49 480
67 491 16 10 113 21 194 23 l71 1 16 -72z m-5731 -165 c19 -101 34 -155 47
-173 20 -25 74 -131 69 -135 -2 -1 -25 -17 -53 -35 -27 -18 -62 -43 -76 -55
-21 -17 -48 -24 -125 -31 -125 -11 -536 -12 -587 -1 -39 8 -39 9 -20 29 10 11
86 72 168 134 83 63 238 181 345 264 107 82 197 150 200 150 3 0 17 -66 32
-147z"/>
<path d="M7495 7710 c-44 -13 -140 -103 -164 -153 -15 -30 -21 -63 -21 -108 0
-54 6 -74 34 -124 46 -84 99 -120 174 -120 105 1 178 65 222 196 42 123 9 234
-85 286 -47 25 -118 36 -160 23z"/>
<path d="M11626 6419 c-14 -11 -26 -24 -26 -28 0 -13 50 -31 88 -31 21 0 48
-9 62 -20 14 -11 31 -20 38 -20 22 0 52 -83 53 -149 1 -50 -3 -68 -24 -99 -62
-95 -184 -188 -297 -228 -25 -9 -76 -29 -115 -44 -94 -38 -149 -44 -258 -31
-51 6 -137 16 -191 22 -134 15 -322 61 -355 88 -14 12 -43 34 -65 49 -21 15
-50 38 -64 51 l-25 23 23 18 c127 96 326 198 454 232 77 20 282 37 274 22 -33
-69 -40 -92 -35 -127 11 -79 71 -124 154 -114 25 2 43 0 43 -5 0 -28 35 -78
65 -92 76 -36 188 17 213 102 7 22 19 43 28 46 21 8 44 68 44 113 0 21 -9 53
-20 71 -20 33 -77 74 -95 69 -22 -8 -15 -36 14 -53 17 -10 31 -23 31 -28 0
-12 -45 -81 -74 -113 -13 -15 -31 -23 -53 -23 -33 0 -51 13 -86 64 -19 27 -45
34 -64 15 -7 -7 -23 -9 -37 -5 -34 8 -43 46 -20 81 16 25 16 27 -3 46 -62 63
-318 48 -519 -30 -114 -44 -247 -125 -326 -200 -71 -67 -81 -90 -48 -118 11
-10 20 -22 20 -27 0 -17 50 -75 77 -88 50 -25 45 -31 -147 -151 -91 -58 -98
-60 -155 -58 -33 1 -70 8 -82 16 -33 22 -40 61 -16 93 17 23 33 29 94 38 93
14 167 42 186 71 33 49 -15 56 -133 18 -108 -35 -132 -35 -161 1 -25 31 -25
50 5 112 21 45 62 63 89 40 25 -21 153 -41 170 -26 39 32 -25 81 -99 75 -41
-3 -48 -1 -48 14 0 11 -14 25 -32 35 -49 24 -78 55 -78 81 0 22 3 23 80 23 76
0 85 -2 180 -50 55 -27 106 -50 115 -50 27 0 16 25 -32 72 -70 67 -130 107
-189 124 -64 18 -172 21 -203 5 -28 -15 -51 -68 -51 -116 0 -40 33 -113 55
-122 8 -3 15 -9 15 -15 0 -5 -4 -7 -9 -3 -5 3 -21 -10 -36 -29 -45 -59 -44
-163 2 -218 13 -14 12 -20 -1 -47 -33 -62 -14 -129 50 -177 30 -23 48 -28 112
-31 l77 -5 82 54 c45 29 115 79 155 110 l73 57 85 -34 c106 -42 191 -59 395
-80 215 -23 254 -18 427 46 221 82 336 172 411 322 22 41 27 66 27 121 0 87
-32 181 -69 203 -14 9 -42 27 -62 40 -47 31 -125 32 -163 2z"/>
</g>
</svg>
